<svg xmlns="http://www.w3.org/2000/svg" version="1.1" xmlns:xlink="http://www.w3.org/1999/xlink" xmlns:svgjs="http://svgjs.com/svgjs" width="1440" height="800" preserveAspectRatio="none" viewBox="0 0 1440 800">
    <g mask="url(&quot;#SvgjsMask1026&quot;)" fill="none">
        <rect width="1440" height="800" x="0" y="0" fill="rgba(21, 67, 96, 1)"></rect>
        <path d="M0,595.404C109.798,592.111,159.53,450.441,257.299,400.365C371.387,341.93,559.407,396.37,614.529,280.646C669.312,165.635,508.43,55.242,480.94,-69.149C456.484,-179.809,539.741,-317.765,463.708,-401.805C387.343,-486.213,246.172,-439.858,133.172,-453.542C40.819,-464.726,-46.977,-485.201,-139.427,-474.845C-247.856,-462.699,-373.041,-467.454,-448.25,-388.41C-523.709,-309.104,-515.035,-184.129,-520.086,-74.777C-524.725,25.665,-522.253,128.089,-476.235,217.489C-431.361,304.667,-344.217,355.153,-267.412,416.101C-181.607,484.191,-109.49,598.688,0,595.404" fill="#0f2f43"></path>
        <path d="M1440 1397.864C1549.859 1383.812 1612.74 1268.941 1691.0149999999999 1190.587 1753.09 1128.45 1800.665 1059.874 1850.144 987.306 1910.596 898.645 2017.024 824.788 2013.559 717.535 2010.0990000000002 610.429 1899.911 543.164 1833.089 459.387 1763.041 371.564 1717.292 253.35699999999997 1612.03 214.12099999999998 1505.262 174.32399999999996 1376.718 193.75300000000004 1279.385 252.995 1188.73 308.173 1169.949 427.294 1113.816 517.36 1067.993 590.883 1007.53 651.775 979.713 733.821 947.2909999999999 829.449 910.608 931.639 940.677 1028.033 971.972 1128.357 1059.569 1198.005 1144.02 1260.554 1233.225 1326.625 1329.889 1411.9479999999999 1440 1397.864" fill="#1b577d"></path>
    </g>
    <defs>
        <mask id="SvgjsMask1026">
            <rect width="1440" height="800" fill="#ffffff"></rect>
        </mask>
    </defs>
</svg>